<svg xmlns="http://www.w3.org/2000/svg" viewBox="0 0 2048 519" role="img" aria-label="Cada quien su tema">
<path fill="#0000FF" fill-rule="evenodd" d="M 924 490 L 924 503 L 2040 503 L 2040 489 L 925 489 Z"/>
<path fill="#0000FF" fill-rule="evenodd" d="M 724 350 L 724 442 L 725 443 L 726 457 L 730 470 L 739 485 L 747 492 L 758 498 L 772 501 L 787 501 L 797 499 L 810 493 L 821 485 L 828 478 L 829 479 L 829 489 L 831 498 L 868 498 L 868 350 L 824 350 L 824 431 L 823 432 L 823 437 L 818 448 L 809 457 L 798 461 L 790 461 L 780 458 L 773 451 L 770 444 L 769 434 L 768 433 L 768 350 Z"/>
<path fill="#0000FF" fill-rule="evenodd" d="M 625 350 L 608 357 L 600 363 L 593 371 L 589 378 L 586 389 L 586 403 L 588 410 L 591 415 L 600 424 L 606 428 L 617 433 L 646 441 L 658 446 L 664 452 L 664 457 L 657 464 L 649 466 L 642 466 L 624 461 L 610 452 L 608 452 L 583 481 L 594 490 L 604 495 L 621 500 L 634 501 L 635 502 L 656 502 L 678 497 L 693 489 L 703 479 L 708 470 L 711 459 L 711 445 L 708 435 L 696 422 L 688 417 L 672 411 L 654 407 L 639 401 L 634 395 L 634 390 L 639 384 L 651 382 L 666 386 L 673 390 L 678 395 L 703 368 L 704 365 L 691 356 L 681 352 L 664 348 L 635 348 Z"/>
<path fill="#0000FF" fill-rule="evenodd" d="M 741 92 L 732 98 L 721 108 L 714 117 L 705 136 L 705 140 L 703 144 L 703 152 L 702 153 L 702 166 L 705 182 L 713 200 L 724 214 L 731 220 L 750 231 L 763 235 L 769 235 L 770 236 L 794 235 L 809 230 L 822 222 L 823 223 L 823 304 L 867 304 L 867 86 L 829 86 L 829 97 L 827 100 L 816 92 L 808 88 L 791 83 L 767 83 L 749 88 Z M 777 121 L 793 121 L 805 126 L 817 137 L 823 151 L 823 169 L 817 182 L 804 194 L 788 199 L 773 197 L 763 192 L 751 179 L 746 165 L 747 150 L 753 137 L 762 128 Z"/>
<path fill="#0000FF" fill-rule="evenodd" d="M 1054 81 L 1054 228 L 1098 228 L 1098 81 Z"/>
<path fill="#0000FF" fill-rule="evenodd" d="M 886 81 L 886 172 L 887 173 L 887 180 L 892 200 L 900 214 L 910 223 L 922 229 L 931 231 L 952 231 L 960 229 L 971 224 L 981 217 L 990 208 L 991 209 L 991 218 L 993 228 L 1030 228 L 1030 81 L 986 81 L 986 162 L 984 171 L 978 181 L 970 188 L 961 191 L 950 191 L 940 187 L 935 181 L 932 174 L 931 164 L 930 163 L 930 81 Z"/>
<path fill="#0000FF" fill-rule="evenodd" d="M 56 83 L 41 90 L 30 98 L 23 105 L 14 118 L 8 132 L 6 140 L 6 148 L 5 149 L 6 169 L 10 183 L 16 195 L 21 202 L 33 214 L 50 224 L 65 229 L 76 230 L 77 231 L 95 231 L 111 228 L 130 220 L 146 207 L 155 193 L 154 191 L 139 184 L 137 182 L 135 182 L 133 180 L 131 180 L 129 178 L 127 178 L 125 176 L 123 176 L 121 174 L 111 186 L 103 191 L 92 194 L 82 194 L 74 192 L 63 186 L 54 176 L 49 164 L 48 150 L 50 142 L 55 132 L 64 123 L 75 117 L 86 116 L 87 115 L 88 116 L 99 117 L 104 119 L 114 126 L 121 135 L 155 118 L 151 109 L 134 92 L 121 85 L 109 81 L 99 79 L 73 79 Z"/>
<path fill="#0000FF" fill-rule="evenodd" d="M 1169 80 L 1154 85 L 1139 94 L 1132 100 L 1121 114 L 1113 132 L 1111 141 L 1111 148 L 1110 149 L 1111 169 L 1115 184 L 1119 191 L 1119 193 L 1125 202 L 1134 212 L 1143 219 L 1159 227 L 1175 231 L 1204 231 L 1227 225 L 1238 220 L 1240 218 L 1242 218 L 1250 212 L 1228 182 L 1221 188 L 1209 193 L 1197 194 L 1196 195 L 1183 194 L 1169 188 L 1161 180 L 1156 170 L 1157 169 L 1265 169 L 1266 165 L 1266 143 L 1262 126 L 1258 117 L 1251 106 L 1239 94 L 1222 84 L 1209 80 L 1194 79 L 1193 78 Z M 1155 141 L 1161 128 L 1171 119 L 1182 115 L 1198 115 L 1207 118 L 1216 126 L 1220 133 L 1222 142 L 1221 143 L 1156 143 Z"/>
<path fill="#0000FF" fill-rule="evenodd" d="M 1403 88 L 1397 84 L 1385 79 L 1364 77 L 1363 78 L 1353 79 L 1343 83 L 1331 91 L 1321 101 L 1319 94 L 1319 81 L 1281 81 L 1281 228 L 1325 228 L 1325 144 L 1327 140 L 1327 137 L 1331 130 L 1339 122 L 1349 118 L 1361 118 L 1369 121 L 1374 125 L 1379 134 L 1380 139 L 1380 228 L 1424 228 L 1424 130 L 1418 108 L 1411 96 Z"/>
<path fill="#0000FF" fill-rule="evenodd" d="M 488 102 L 511 130 L 513 130 L 523 122 L 534 117 L 537 117 L 541 115 L 554 114 L 555 115 L 563 115 L 572 119 L 579 127 L 581 135 L 580 140 L 542 140 L 526 143 L 510 149 L 501 155 L 495 161 L 489 171 L 487 178 L 487 196 L 493 211 L 501 220 L 510 226 L 526 231 L 547 231 L 565 225 L 571 221 L 581 211 L 583 214 L 583 220 L 585 228 L 622 228 L 622 126 L 619 114 L 611 100 L 601 90 L 588 83 L 575 79 L 562 78 L 561 77 L 547 77 L 546 78 L 533 79 L 512 86 L 504 90 Z M 581 166 L 580 176 L 576 185 L 569 193 L 563 197 L 553 200 L 542 199 L 535 194 L 531 187 L 531 180 L 534 174 L 542 167 L 556 164 L 579 164 Z"/>
<path fill="#0000FF" fill-rule="evenodd" d="M 161 102 L 164 107 L 184 130 L 194 123 L 207 117 L 214 115 L 227 114 L 228 115 L 235 115 L 243 118 L 250 125 L 253 132 L 253 139 L 252 140 L 215 140 L 214 141 L 202 142 L 192 145 L 176 153 L 166 163 L 161 173 L 159 181 L 159 193 L 162 204 L 165 210 L 176 222 L 187 228 L 194 230 L 219 231 L 231 228 L 245 220 L 254 211 L 256 217 L 257 228 L 295 228 L 295 130 L 292 115 L 283 99 L 276 92 L 267 86 L 255 81 L 241 78 L 234 78 L 233 77 L 220 77 L 219 78 L 206 79 L 187 85 L 170 94 Z M 253 165 L 252 178 L 248 186 L 239 195 L 231 199 L 220 200 L 211 197 L 206 192 L 204 188 L 204 179 L 209 171 L 217 166 L 227 165 L 228 164 L 252 164 Z"/>
<path fill="#0000FF" fill-rule="evenodd" d="M 1068 12 L 1057 18 L 1052 24 L 1048 34 L 1048 46 L 1052 56 L 1058 63 L 1071 69 L 1080 69 L 1090 65 L 1098 58 L 1103 49 L 1104 35 L 1098 22 L 1090 15 L 1083 12 Z"/>
<path fill="#0000FF" fill-rule="evenodd" d="M 471 10 L 427 10 L 427 91 L 426 92 L 410 83 L 398 79 L 392 79 L 391 78 L 366 79 L 356 82 L 340 90 L 323 105 L 316 115 L 311 125 L 306 143 L 306 165 L 308 175 L 312 186 L 321 201 L 329 210 L 342 220 L 363 229 L 373 230 L 374 231 L 390 231 L 405 228 L 415 224 L 431 213 L 432 214 L 433 228 L 470 228 L 471 227 Z M 380 116 L 392 115 L 406 119 L 412 123 L 420 131 L 426 143 L 427 161 L 423 173 L 419 179 L 409 188 L 396 193 L 381 193 L 366 186 L 357 177 L 350 162 L 350 147 L 354 136 L 364 124 L 370 120 Z"/>
<path fill="#494968" fill-rule="evenodd" d="M 1469 334 L 1464 340 L 1464 353 L 1463 354 L 1449 354 L 1444 360 L 1444 376 L 1448 380 L 1488 380 L 1492 376 L 1492 356 L 1494 353 L 1507 353 L 1509 355 L 1509 366 L 1512 369 L 1524 369 L 1526 372 L 1526 390 L 1523 393 L 1471 393 L 1468 394 L 1464 400 L 1464 412 L 1463 413 L 1450 413 L 1445 417 L 1444 419 L 1444 476 L 1446 480 L 1450 483 L 1568 483 L 1571 481 L 1574 476 L 1574 360 L 1569 354 L 1555 354 L 1554 353 L 1554 340 L 1547 333 L 1471 333 Z M 1494 429 L 1496 428 L 1522 428 L 1526 431 L 1526 460 L 1524 463 L 1522 464 L 1512 464 L 1509 461 L 1509 452 L 1507 449 L 1505 448 L 1495 448 L 1492 444 L 1492 432 Z"/>
<path fill="#494968" fill-rule="evenodd" d="M 1214 357 L 1213 360 L 1213 475 L 1214 479 L 1218 483 L 1258 483 L 1262 478 L 1262 356 L 1265 353 L 1276 353 L 1279 356 L 1279 368 L 1281 369 L 1293 369 L 1295 371 L 1295 477 L 1300 483 L 1339 483 L 1344 477 L 1344 355 L 1347 353 L 1358 353 L 1361 356 L 1361 368 L 1362 369 L 1375 369 L 1377 371 L 1377 477 L 1379 481 L 1382 483 L 1421 483 L 1424 481 L 1426 477 L 1426 361 L 1425 358 L 1421 354 L 1407 354 L 1405 352 L 1405 338 L 1399 333 L 1239 333 L 1234 337 L 1234 352 L 1232 354 L 1217 354 Z"/>
<path fill="#494968" fill-rule="evenodd" d="M 1088 334 L 1085 338 L 1085 352 L 1083 354 L 1069 354 L 1066 356 L 1064 362 L 1064 455 L 1065 459 L 1070 463 L 1084 463 L 1085 464 L 1085 479 L 1089 483 L 1170 483 L 1172 482 L 1175 475 L 1175 464 L 1176 463 L 1190 463 L 1195 458 L 1195 446 L 1192 441 L 1187 439 L 1154 439 L 1148 442 L 1146 446 L 1146 461 L 1143 464 L 1133 464 L 1130 461 L 1130 452 L 1128 448 L 1116 448 L 1113 445 L 1113 431 L 1117 428 L 1189 428 L 1192 426 L 1195 421 L 1195 359 L 1191 354 L 1176 354 L 1175 353 L 1174 337 L 1169 333 L 1090 333 Z M 1116 353 L 1128 353 L 1130 356 L 1130 367 L 1133 369 L 1144 369 L 1146 371 L 1146 391 L 1143 393 L 1116 393 L 1113 390 L 1113 356 Z"/>
<path fill="#494968" fill-rule="evenodd" d="M 985 289 L 983 290 L 983 307 L 981 309 L 965 309 L 963 310 L 962 313 L 962 332 L 961 333 L 943 333 L 940 335 L 938 340 L 938 362 L 939 365 L 944 369 L 961 369 L 962 370 L 962 459 L 966 463 L 981 463 L 982 464 L 982 478 L 984 482 L 986 483 L 1042 483 L 1046 479 L 1046 453 L 1045 451 L 1041 448 L 1014 448 L 1011 445 L 1011 370 L 1012 369 L 1041 369 L 1046 365 L 1046 337 L 1041 333 L 1012 333 L 1011 332 L 1011 292 L 1010 290 L 1008 289 Z"/>
</svg>